<svg version="1.1" width="250px" height="auto" id="Laag_1" xmlns="http://www.w3.org/2000/svg" xmlns:xlink="http://www.w3.org/1999/xlink" x="0px" y="0px" viewBox="0 0 1366 383" style="enable-background:new 0 0 1366 383;" xml:space="preserve">
    <style type="text/css">
        .st8{fill:#022d20;}
        .st2{fill:url(#SVGID_1_);}
        .st3{fill:url(#SVGID_00000113351414978670961810000013385754324564172691_);}
        .st4{fill:url(#SVGID_00000034773214454076571240000009824393490796138651_);}
        .st5{fill:url(#SVGID_00000005233323782604965120000016200869958869376698_);}
        .st6{fill:url(#SVGID_00000175281977929405641520000000050827497702689196_);}
        .st7{fill:url(#Rectangle_509_00000138575635177763746460000016355069445748929175_);}
        .st8{fill:#022D20;}
    </style>
    <g class="st0">
        <path class="st8" d="M541.3,147.1v91.2c0,35.1-14.7,51.8-45,51.8c-30,0-42.8-17.8-42.8-51.6v-91.8c0-34.6,16.7-51,44.5-51
            C526.2,95.8,541.3,113.4,541.3,147.1z M479.5,144.8v96.6c0,18.1,6.5,25.8,17.8,25.8c12.2,0,18.1-7.4,18.1-26.3v-96
            c0-17.3-5.7-26.1-18.1-26.1C485.5,118.8,479.5,127,479.5,144.8z"></path>
        <path class="st8" d="M563.9,287.6V98.4h29.7l27.8,104.8c4,14.2,5.9,25.5,7.4,33.7h0.6c-1.4-24.4-1.4-51-1.4-81.9V98.4h23.5v189.2
            h-28.6L591.7,168c-2.5-9.9-4-17.8-5.1-23.5h-0.3c1.1,22.9,1.4,50.4,1.4,84.7v58.3H563.9z"></path>
        <path class="st8" d="M678.1,98.4h25.5v166.5h47.6l-2.5,22.7h-70.5V98.4z"></path>
        <path class="st8" d="M768.4,287.6V219c0-2.3-0.3-3.7-0.8-5.9L732.4,98.4h28c8.2,32.3,18.1,69.7,21,88.9h0.3
            c4-20.4,13.6-57.8,21.2-88.9h26.9l-35.7,116.7c-0.3,1.4-0.6,3.1-0.6,6.5v66H768.4z"></path>
        <linearGradient id="SVGID_1_" gradientUnits="userSpaceOnUse" x1="869.2269" y1="192.9597" x2="1015.0912" y2="192.9597">
            <stop offset="0" style="stop-color:#06BC67"></stop>
            <stop offset="1" style="stop-color:#28D16C"></stop>
        </linearGradient>
        <path class="st2" d="M895.3,287.6L869.2,98.4h26.9c5.1,43.1,12.5,113,13.9,146.1h0.6c3.4-36,13.6-103.4,19.3-146.1H955
            c5.9,43.9,15.9,106.5,19,145h0.6c2.3-35.1,9.9-100.8,14.7-145h25.8l-28.3,189.2h-26.3c-5.7-43.3-15-103.9-18.7-139.6h-0.6
            c-4,37.4-13.6,97.4-19.8,139.6H895.3z"></path>

        <linearGradient id="SVGID_00000011024274878579157730000004357119618871530382_" gradientUnits="userSpaceOnUse" x1="1031.5142" y1="192.9597" x2="1057.0067" y2="192.9597">
            <stop offset="0" style="stop-color:#06BC67"></stop>
            <stop offset="1" style="stop-color:#28D16C"></stop>
        </linearGradient>
        <path style="fill:url(#SVGID_00000011024274878579157730000004357119618871530382_);" d="M1057,98.4v189.2h-25.5V98.4H1057z"></path>

        <linearGradient id="SVGID_00000160890204258850852190000012810589707263478436_" gradientUnits="userSpaceOnUse" x1="1083.6282" y1="192.9597" x2="1171.146" y2="192.9597">
            <stop offset="0" style="stop-color:#06BC67"></stop>
            <stop offset="1" style="stop-color:#28D16C"></stop>
        </linearGradient>
        <path style="fill:url(#SVGID_00000160890204258850852190000012810589707263478436_);" d="M1083.6,287.6V98.4h29.7l27.8,104.8
            c4,14.2,5.9,25.5,7.4,33.7h0.6c-1.4-24.4-1.4-51-1.4-81.9V98.4h23.5v189.2h-28.6L1111.4,168c-2.5-9.9-4-17.8-5.1-23.5h-0.3
            c1.1,22.9,1.4,50.4,1.4,84.7v58.3H1083.6z"></path>

        <linearGradient id="SVGID_00000080187457421901271620000000650118049697293755_" gradientUnits="userSpaceOnUse" x1="1197.4843" y1="192.9597" x2="1270.8414" y2="192.9597">
            <stop offset="0" style="stop-color:#06BC67"></stop>
            <stop offset="1" style="stop-color:#28D16C"></stop>
        </linearGradient>
        <path style="fill:url(#SVGID_00000080187457421901271620000000650118049697293755_);" d="M1264.9,198.9H1223v65.4h47.9l-3.1,23.2
            h-70.2V98.4h69.7v23.5H1223v53.8h41.9V198.9z"></path>

        <linearGradient id="SVGID_00000163754912972554733240000006868213911706619324_" gradientUnits="userSpaceOnUse" x1="1281.8817" y1="192.818" x2="1366" y2="192.818">
            <stop offset="0" style="stop-color:#06BC67"></stop>
            <stop offset="1" style="stop-color:#28D16C"></stop>
        </linearGradient>
        <path style="fill:url(#SVGID_00000163754912972554733240000006868213911706619324_);" d="M1307.1,232.9v11.3
            c0,15.6,5.1,24.4,17,24.4c12.5,0,16.4-10.5,16.4-26.3c0-21-4.5-28.3-24.9-44.2c-20.1-15.9-30.9-26.1-30.9-53.8
            c0-24.6,7.4-48.7,39.7-48.7c32,0,38.5,22.4,38.5,44.5v9.3h-25.2v-8.8c0-14.2-2.5-23.2-13.6-23.2c-11,0-13.9,9.6-13.9,23.2
            c0,15,2.8,21.8,19.8,34.3c27.5,20.4,36,32.3,36,63.7c0,26.6-8.8,51.6-42.5,51.6c-33.1,0-41.6-21.2-41.6-46.2v-11H1307.1z"></path>
    </g>
    <linearGradient id="Rectangle_509_00000173127692807475150630000007518327862552377774_" gradientUnits="userSpaceOnUse" x1="385.8197" y1="804.9654" x2="385.8197" y2="804.6109" gradientTransform="matrix(1080 0 0 -1080 -416493.875 869363.0625)">
        <stop offset="0" style="stop-color:#06BC67"></stop>
        <stop offset="1" style="stop-color:#28D16C"></stop>
    </linearGradient>
    <path id="Rectangle_509" style="fill:url(#Rectangle_509_00000173127692807475150630000007518327862552377774_);" d="M53.2,0.4
        h276.5c29.4,0,53.2,23.8,53.2,53.2v276.5c0,29.4-23.8,53.2-53.2,53.2H53.2C23.8,383.3,0,359.5,0,330.1V53.6
        C0,24.2,23.8,0.4,53.2,0.4z"></path>
    <path id="Path_1099" class="st8" d="M221.1,124.7C206,110.2,205.6,90,205.6,90V58.4c0-3-2.5-5.5-5.5-5.5c0,0,0,0,0,0h-17.5
        c-3,0-5.5,2.5-5.5,5.5c0,0,0,0,0,0V90c0,0,0,21.4-16.5,36c-11.3,9.1-17.6,24.5-17.6,46.8v101.3c0,36.9,13.8,56.8,47.1,56.8
        c33.6,0,49.8-18.7,49.8-57.3V172.9C239.8,149.9,233.4,133.7,221.1,124.7 M211.3,276.4c0,21-6.5,29.3-20,29.3
        c-12.6,0-19.8-8.7-19.8-28.6V170.7c0-19.8,6.7-28.8,19.7-28.8c13.9,0,20.1,9.8,20.1,28.7L211.3,276.4z"></path>
</svg>